<svg version="1.1" id="Layer_1" xmlns="http://www.w3.org/2000/svg" xmlns:xlink="http://www.w3.org/1999/xlink" x="0px" y="0px"
	 viewBox="0 0 1024 1024" enable-background="new 0 0 1024 1024" xml:space="preserve">

<defs>
    <linearGradient id="duckGradient" x1="0%" y1="0%" x2="100%" y2="100%">
	<stop offset="0%" stop-color="#8cc190ff"/>
	<stop offset="45%" stop-color="#6b9cff"/>
    <stop offset="90%" stop-color="#9a6bff"/>
	<stop offset="100%" stop-color="#b85ac0ff"/>
    </linearGradient>
  </defs>

<path fill="url(#duckGradient)" opacity="1.000000" stroke="none" 
	d="
M625.866333,188.676483 
	C677.701721,195.129593 715.409119,220.695969 737.352173,268.196106 
	C743.546570,281.605103 746.711060,295.879761 748.123108,310.496094 
	C748.529297,314.700897 750.386597,316.098480 754.075134,317.028992 
	C788.872864,325.807404 823.636536,334.720917 858.407471,343.605621 
	C863.092468,344.802734 867.694336,346.255188 871.924866,348.659698 
	C882.142212,354.466827 884.889221,366.975708 878.150574,376.571228 
	C871.118835,386.584198 861.053894,390.953033 849.316650,392.342285 
	C827.544250,394.919250 805.806030,397.830292 783.995789,400.028992 
	C765.133911,401.930511 746.235291,403.676941 727.220703,403.434784 
	C721.239685,403.358643 715.246155,403.868439 709.266418,404.239380 
	C706.018555,404.440887 695.265869,413.659363 694.504883,416.782532 
	C693.601135,420.491241 695.808289,422.706024 698.439941,424.718567 
	C711.149475,434.437927 723.617310,444.451111 735.222046,455.488159 
	C770.294312,488.844788 795.904785,527.947571 806.458618,575.702026 
	C818.061340,628.202515 810.184631,678.292847 782.771851,724.249634 
	C746.062012,785.792664 690.380188,820.788330 620.648132,834.424438 
	C605.741089,837.339539 590.656860,838.316528 575.498901,838.312622 
	C538.669006,838.303223 501.835266,837.894714 465.010132,838.294861 
	C398.040863,839.022461 339.739319,815.151184 286.970917,775.897705 
	C242.232254,742.617371 208.754303,699.955322 185.118652,649.575134 
	C171.826279,621.242065 163.189636,591.520020 159.522552,560.354980 
	C154.224258,515.327087 158.881531,471.457245 174.078445,428.723846 
	C176.092636,423.060028 177.202484,422.893372 181.982986,426.819183 
	C204.109848,444.989899 225.664352,463.937012 250.800339,478.070129 
	C266.170319,486.712189 282.254395,492.483337 300.300385,490.671661 
	C310.093628,489.688538 318.722931,485.148987 327.763458,481.879425 
	C354.900848,472.064972 382.712341,465.181885 411.373169,461.512451 
	C431.226715,458.970581 451.133820,457.838989 471.099426,458.038666 
	C490.743683,458.235168 510.294464,459.920654 529.596497,463.869904 
	C538.182190,465.626556 542.749634,460.596985 540.196045,452.123444 
	C538.054810,445.018188 534.028076,438.867432 529.855591,432.821838 
	C522.282959,421.849854 513.093689,412.104248 505.831390,400.883820 
	C492.770416,380.704315 484.946411,358.893311 482.468750,334.817719 
	C475.805969,270.074432 521.663513,205.165131 586.710510,191.057755 
	C599.485718,188.287079 612.412598,187.942642 625.866333,188.676483 
M321.084229,673.400330 
	C325.491180,677.239563 330.227539,680.653809 335.267975,683.575500 
	C350.005707,692.118347 365.698090,696.178589 382.619507,692.006348 
	C411.241943,684.948975 429.017151,666.002319 439.195068,639.143738 
	C442.005554,631.727112 438.004395,625.757629 430.062561,625.429382 
	C423.225647,625.146790 416.487122,624.122803 409.786682,623.031982 
	C375.252014,617.409607 342.438354,606.318176 310.950134,591.202209 
	C298.952393,585.442627 287.084137,579.413391 275.093719,573.638184 
	C269.374664,570.883606 265.245514,573.711365 265.368317,580.138977 
	C265.396423,581.610168 265.677368,583.110291 266.066498,584.535767 
	C275.567230,619.335388 293.817505,648.753601 321.084229,673.400330 
M636.897583,315.712463 
	C646.276672,320.422760 655.552979,319.422638 662.862488,312.913116 
	C668.939148,307.501526 671.526123,297.209991 668.729919,289.571106 
	C665.376953,280.411102 656.948242,274.776215 647.098022,275.109497 
	C637.735840,275.426208 629.548279,281.515289 626.871582,290.151825 
	C623.889160,299.774658 627.310608,308.953217 636.897583,315.712463 
z"/>
</svg>